<svg width="247" height="535" viewBox="0 0 247 535" fill="none" xmlns="http://www.w3.org/2000/svg">
<path id="Rim" d="M237.5 242C237.5 243.761 236.015 246.671 230.16 250.218C224.576 253.6 216.195 256.806 205.443 259.561C184.007 265.053 154.149 268.5 121 268.5C87.8506 268.5 57.9935 265.053 36.5569 259.561C25.8046 256.806 17.4245 253.6 11.8402 250.218C5.98501 246.671 4.5 243.761 4.5 242C4.5 240.239 5.98501 237.329 11.8402 233.782C17.4245 230.4 25.8046 227.194 36.5569 224.439C57.9935 218.947 87.8506 215.5 121 215.5C154.149 215.5 184.007 218.947 205.443 224.439C216.195 227.194 224.576 230.4 230.16 233.782C236.015 237.329 237.5 240.239 237.5 242Z" stroke="black" stroke-width="9"/>
<path id="CanBody" d="M6 506.229V253C32.0028 256.957 92.1054 265.068 124.494 265.859C156.882 266.651 211.326 252.616 237 248L242 516.121C242 516.121 163.992 530.76 124.494 529.969C84.9958 529.178 29.6987 517.439 6 506.229Z" fill="black" stroke="black" stroke-width="9"/>
<path id="Heat1" d="M8 179C41.2569 168 67.2569 156 41.2569 113C15.2569 70 13.7257 25 65.2569 17" stroke="black" stroke-width="22"/>
<path id="Heat2" d="M96.2569 173C129.514 162 155.514 150 129.514 107C103.514 64 101.983 19 153.514 11" stroke="black" stroke-width="22"/>
<path id="Heat3" d="M184.257 179C217.514 168 243.514 156 217.514 113C191.514 70 189.983 25 241.514 17" stroke="black" stroke-width="22"/>
</svg>
